<svg viewBox="0 0 700 118" xmlns="http://www.w3.org/2000/svg">
  <rect x="10" y="20" width="122" height="58" fill="none" stroke="black" stroke-width="1.2"/>
  <text x="71" y="40" text-anchor="middle" font-family="Helvetica" font-size="9" font-weight="bold">Local EPM Wizard</text>
  <text x="71" y="54" text-anchor="middle" font-family="Helvetica" font-size="8">conversations + validated</text>
  <text x="71" y="66" text-anchor="middle" font-family="Helvetica" font-size="8">form / rule artifacts</text>

  <line x1="132" y1="49" x2="144" y2="49" stroke="black" stroke-width="1.2"/>
  <polygon points="150,49 142,45 142,53" fill="black"/>

  <rect x="150" y="20" width="122" height="58" fill="none" stroke="black" stroke-width="1.2"/>
  <text x="211" y="40" text-anchor="middle" font-family="Helvetica" font-size="9" font-weight="bold">Redacted corpus</text>
  <text x="211" y="54" text-anchor="middle" font-family="Helvetica" font-size="8">export_training_data</text>
  <text x="211" y="66" text-anchor="middle" font-family="Helvetica" font-size="8">JSONL · no secrets</text>

  <line x1="272" y1="49" x2="284" y2="49" stroke="black" stroke-width="1.2"/>
  <polygon points="290,49 282,45 282,53" fill="black"/>

  <rect x="290" y="20" width="122" height="58" fill="none" stroke="black" stroke-width="1.2"/>
  <text x="351" y="40" text-anchor="middle" font-family="Helvetica" font-size="9" font-weight="bold">Cloud Object Storage</text>
  <text x="351" y="54" text-anchor="middle" font-family="Helvetica" font-size="8">corpus bucket in the</text>
  <text x="351" y="66" text-anchor="middle" font-family="Helvetica" font-size="8">watsonx.ai project</text>

  <line x1="412" y1="49" x2="424" y2="49" stroke="black" stroke-width="1.2"/>
  <polygon points="430,49 422,45 422,53" fill="black"/>

  <rect x="430" y="20" width="122" height="58" fill="none" stroke="#0f62fe" stroke-width="1.5"/>
  <text x="491" y="36" text-anchor="middle" font-family="Helvetica" font-size="9" font-weight="bold" fill="#0f62fe">Tune Granite</text>
  <text x="491" y="50" text-anchor="middle" font-family="Helvetica" font-size="8">A: Tuning Studio (managed)</text>
  <text x="491" y="62" text-anchor="middle" font-family="Helvetica" font-size="8">B: GPU VSI (full control,</text>
  <text x="491" y="72" text-anchor="middle" font-family="Helvetica" font-size="8">deprovision after run)</text>

  <line x1="552" y1="49" x2="564" y2="49" stroke="black" stroke-width="1.2"/>
  <polygon points="570,49 562,45 562,53" fill="black"/>

  <rect x="570" y="20" width="122" height="58" fill="none" stroke="black" stroke-width="1.2"/>
  <text x="631" y="40" text-anchor="middle" font-family="Helvetica" font-size="9" font-weight="bold">Tuned model live</text>
  <text x="631" y="54" text-anchor="middle" font-family="Helvetica" font-size="8">watsonx.ai deployment space;</text>
  <text x="631" y="66" text-anchor="middle" font-family="Helvetica" font-size="8">selected in app Settings</text>

  <!-- loop back -->
  <line x1="631" y1="78" x2="631" y2="98" stroke="black" stroke-dasharray="4,3"/>
  <line x1="631" y1="98" x2="71" y2="98" stroke="black" stroke-dasharray="4,3"/>
  <line x1="71" y1="98" x2="71" y2="84" stroke="black" stroke-dasharray="4,3"/>
  <polygon points="71,78 67,86 75,86" fill="black"/>
  <text x="351" y="110" text-anchor="middle" font-family="Helvetica" font-size="8">the model keeps learning from the team's own validated EPM work</text>
</svg>
